<?xml version="1.0" encoding="iso-8859-1"?>
<!-- Generator: Adobe Illustrator 19.1.0, SVG Export Plug-In . SVG Version: 6.00 Build 0)  -->
<svg version="1.1" id="Capa_1" xmlns="http://www.w3.org/2000/svg" xmlns:xlink="http://www.w3.org/1999/xlink" x="0px" y="0px"
	 viewBox="0 0 66.231 66.231" style="enable-background:new 0 0 66.231 66.231;" xml:space="preserve">
<g>
	<g id="group-8svg">
		<path id="path-1_28_" style="fill:#8B71B5;" d="M62.48,52.535h3v-10H20.141l1.921,10h3.418l0,0"/>
		<path id="path-2_28_" style="fill:#E56A77;" d="M20.141,42.535h36.488l9.602-20h-50.99L20.141,42.535z"/>
		<path id="path-3_28_" style="fill:#EDC951;" d="M61.142,53.575c0,3.182-2.58,5.761-5.761,5.761c-3.182,0-5.762-2.579-5.762-5.761
			s2.58-5.761,5.762-5.761C58.562,47.813,61.142,50.393,61.142,53.575z"/>
		<path id="path-4_27_" style="fill:#EDC951;" d="M38.049,53.575c0,3.182-2.579,5.761-5.761,5.761c-3.182,0-5.761-2.579-5.761-5.761
			s2.579-5.761,5.761-5.761C35.47,47.813,38.049,50.393,38.049,53.575z"/>
		<path id="path-5_23_" d="M51.629,41.535H15.141c-0.691,0-1.292-0.472-1.457-1.143l-4.9-20c-0.109-0.448-0.007-0.92,0.277-1.283
			c0.284-0.362,0.72-0.574,1.18-0.574h50.99c0.515,0,0.995,0.265,1.269,0.701c0.275,0.437,0.306,0.983,0.083,1.448l-9.602,20
			C52.731,41.203,52.205,41.535,51.629,41.535z M16.318,38.535h34.367l8.161-17H12.153L16.318,38.535z"/>
		<path id="path-6_21_" d="M60.98,51.535h-3.5c-0.829,0-1.5-0.671-1.5-1.5s0.671-1.5,1.5-1.5h2v-7H16.957l1.344,7h2.179
			c0.828,0,1.5,0.671,1.5,1.5s-0.672,1.5-1.5,1.5h-3.418c-0.72,0-1.338-0.511-1.473-1.217l-1.921-10
			c-0.084-0.44,0.032-0.894,0.317-1.238c0.285-0.345,0.709-0.545,1.156-0.545H60.98c0.828,0,1.5,0.671,1.5,1.5v10
			C62.48,50.863,61.808,51.535,60.98,51.535z"/>
		<path id="path-7_15_" d="M43.48,51.535h-10c-0.829,0-1.5-0.671-1.5-1.5s0.671-1.5,1.5-1.5h10c0.828,0,1.5,0.671,1.5,1.5
			S44.308,51.535,43.48,51.535z"/>
		<path id="path-8_13_" d="M50.381,58.835c-4.004,0-7.262-3.257-7.262-7.261s3.258-7.261,7.262-7.261
			c4.003,0,7.261,3.257,7.261,7.261S54.384,58.835,50.381,58.835z M50.381,47.313c-2.35,0-4.262,1.911-4.262,4.261
			c0,2.35,1.912,4.261,4.262,4.261c2.349,0,4.261-1.911,4.261-4.261C54.642,49.224,52.73,47.313,50.381,47.313z"/>
		<path id="path-9_11_" d="M27.288,58.835c-4.004,0-7.261-3.257-7.261-7.261s3.257-7.261,7.261-7.261s7.261,3.257,7.261,7.261
			S31.292,58.835,27.288,58.835z M27.288,47.313c-2.35,0-4.261,1.911-4.261,4.261c0,2.35,1.911,4.261,4.261,4.261
			c2.349,0,4.261-1.911,4.261-4.261C31.549,49.224,29.637,47.313,27.288,47.313z"/>
		<path id="path-10_9_" d="M17.061,51.115c-0.677,0-1.29-0.46-1.457-1.146L6.015,10.527c-0.22-0.223-0.846-0.631-1.527-0.631
			C3.654,9.896,3,10.586,3,11.468c0,0.542,0.266,1.042,0.712,1.337c0.69,0.459,0.878,1.39,0.419,2.08
			c-0.458,0.69-1.39,0.878-2.079,0.419C0.767,14.451,0,13.017,0,11.468c0-2.521,2.013-4.572,4.488-4.572
			c2.095,0,4.228,1.457,4.453,2.967l9.578,39.397c0.196,0.805-0.298,1.617-1.103,1.813C17.297,51.101,17.178,51.115,17.061,51.115z"
			/>
		<path id="path-11_7_" d="M38.48,33.535h-9c-0.829,0-1.5-0.671-1.5-1.5c0-0.829,0.671-1.5,1.5-1.5h9c0.828,0,1.5,0.671,1.5,1.5
			C39.98,32.864,39.308,33.535,38.48,33.535z"/>
	</g>
</g>
<g>
</g>
<g>
</g>
<g>
</g>
<g>
</g>
<g>
</g>
<g>
</g>
<g>
</g>
<g>
</g>
<g>
</g>
<g>
</g>
<g>
</g>
<g>
</g>
<g>
</g>
<g>
</g>
<g>
</g>
</svg>
