<?xml version="1.0" encoding="iso-8859-1"?><!-- Generator: Adobe Illustrator 19.2.1, SVG Export Plug-In . SVG Version: 6.00 Build 0)  --><svg xmlns="http://www.w3.org/2000/svg" xmlns:xlink="http://www.w3.org/1999/xlink" version="1.1" id="Layer_1" x="0px" y="0px" viewBox="0 0 80 80" style="enable-background:new 0 0 80 80;" xml:space="preserve" width="80" height="80">
<g>
	<path style="fill:#C2E8FF;" d="M4.506,73.5c0.272-11.625,10.034-21,21.994-21h15c7.191,0,13.9,3.42,18.024,9.169L49.351,73.5H4.506   z"/>
	<g>
		<path style="fill:#7496C4;" d="M41.5,53c6.897,0,13.339,3.217,17.386,8.644L49.122,73L5.024,73C5.56,61.883,14.988,53,26.5,53    H41.5 M41.5,52h-15C14.074,52,4,61.85,4,74v0h45.581l10.577-12.3C56.114,55.848,49.267,52,41.5,52L41.5,52z"/>
	</g>
</g>
<g>
	<path style="fill:#E8D47B;" d="M34,59.5c-6.685,0-9.192-5.859-9.5-6.648V41.319h19v11.533C43.192,53.641,40.685,59.5,34,59.5z"/>
	<path style="fill:#BA9B48;" d="M43,41.819v10.936C42.593,53.749,40.151,59,34,59c-6.154,0-8.596-5.257-9-6.245V41.819H43    M44,40.819H24v12.124c0,0,2.534,7.057,10,7.057s10-7.057,10-7.057V40.819L44,40.819z"/>
</g>
<g>
	<g>
		<path style="fill:#E8D47B;" d="M46.857,37.786c-2.561,0-4.644-2.083-4.644-4.643s2.083-4.643,4.644-4.643    c3.298,0,4.643,0.849,4.643,2.929C51.5,33.939,49.42,37.786,46.857,37.786z M21.143,37.786c-2.562,0-4.643-3.847-4.643-6.357    c0-2.08,1.345-2.929,4.643-2.929c2.561,0,4.644,2.083,4.644,4.643S23.703,37.786,21.143,37.786z"/>
	</g>
	<g>
		<path style="fill:#BA9B48;" d="M46.857,29C50.307,29,51,29.929,51,31.429c0,2.503-2.048,5.857-4.143,5.857    c-2.284,0-4.143-1.858-4.143-4.143C42.714,30.858,44.573,29,46.857,29 M21.143,29c2.284,0,4.143,1.858,4.143,4.143    c0,2.284-1.858,4.143-4.143,4.143c-2.095,0-4.143-3.354-4.143-5.857C17,29.929,17.693,29,21.143,29 M46.857,28    c-2.84,0-5.143,2.302-5.143,5.143s2.303,5.143,5.143,5.143c2.84,0,5.143-4.017,5.143-6.857C52,28.588,49.697,28,46.857,28    L46.857,28z M21.143,28C18.303,28,16,28.588,16,31.429c0,2.84,2.303,6.857,5.143,6.857c2.84,0,5.143-2.303,5.143-5.143    S23.983,28,21.143,28L21.143,28z"/>
	</g>
</g>
<g>
	<g>
		<path style="fill:#FFEEA3;" d="M34,51.5c-1.3,0-2.534-0.498-3.477-1.403l-0.091-0.086l-0.119-0.034    C24.535,48.338,20.5,43.001,20.5,37V20.728c0-3.403,2.769-6.172,6.172-6.172h14.656c3.403,0,6.172,2.769,6.172,6.172V37    c0,6.001-4.035,11.338-9.813,12.977l-0.119,0.034l-0.091,0.086C36.534,51.002,35.3,51.5,34,51.5z"/>
	</g>
	<g>
		<path style="fill:#BA9B48;" d="M41.328,15.056c3.128,0,5.672,2.545,5.672,5.672V37c0,5.779-3.886,10.918-9.449,12.496l-0.24,0.068    l-0.18,0.173C36.282,50.551,35.17,51,34,51s-2.282-0.449-3.131-1.263l-0.18-0.173l-0.24-0.068C24.886,47.918,21,42.779,21,37    V20.728c0-3.128,2.545-5.672,5.672-5.672H41.328 M41.328,14.056H26.672c-3.685,0-6.672,2.987-6.672,6.672V37    c0,6.405,4.306,11.793,10.177,13.458C31.17,51.411,32.515,52,34,52s2.83-0.589,3.823-1.542C43.694,48.793,48,43.405,48,37V20.728    C48,17.043,45.013,14.056,41.328,14.056L41.328,14.056z"/>
	</g>
</g>
<g>
	<path style="fill:#FFC49C;" d="M47.5,33.5V25c0-6.66-5.292-8.458-5.346-8.476l-0.326-0.106l-0.217,0.267   C41.564,16.743,36.814,22.5,30,22.5c-0.521,0-1.062-0.017-1.608-0.033c-0.569-0.017-1.146-0.035-1.711-0.035   c-2.006,0-6.181,0-6.181,4.568v6.5h-0.218c-0.7-1.192-3.782-6.755-3.782-12.348C16.5,11.348,23.696,4.5,34,4.5   c6.472,0,9.527,5.675,9.557,5.732l0.119,0.226l0.253,0.037C49.095,11.235,51.5,14.891,51.5,22c0,5.077-3.073,10.359-3.776,11.5   H47.5z"/>
	<g>
		<path style="fill:#A16A4A;" d="M34,5c6.155,0,8.997,5.242,9.114,5.463l0.237,0.454l0.507,0.073C46.924,11.429,51,13.048,51,22    c0,3.895-1.872,7.936-3,10.018V25c0-3.644-1.526-5.878-2.807-7.111c-1.4-1.347-2.824-1.821-2.884-1.84l-0.653-0.211l-0.433,0.532    c-0.046,0.056-4.658,5.63-11.224,5.63c-0.516,0-1.052-0.016-1.593-0.033c-0.574-0.017-1.155-0.035-1.725-0.035    c-1.999,0-6.681,0-6.681,5.068v4.944c-1.132-2.203-3-6.489-3-10.792C17,11.642,23.991,5,34,5 M34,4c-10.719,0-18,7.333-18,17.152    C16,27.656,20,34,20,34h1c0,0,0-5.211,0-7c0-3.582,2.701-4.068,5.681-4.068c1.109,0,2.257,0.067,3.319,0.067    c7.146,0,12-5.999,12-5.999s5,1.626,5,8c0,1.968,0,9,0,9h1c0,0,4-6.073,4-12c0-8.322-3.405-11.342-8-12C44,10,40.868,4,34,4L34,4z    "/>
	</g>
</g>
<g>
	<g>
		<polygon style="fill:#F5CE85;" points="46.675,69.031 50.14,65.566 56.887,71.442 53.001,75.329 41.955,80.046   "/>
		<path style="fill:#967A44;" d="M50.163,66.249l5.992,5.218l-3.439,3.439l-9.81,4.19l4.19-9.78L50.163,66.249 M50.116,64.882    l-3.863,3.863l-5.249,12.251l12.283-5.246l4.333-4.333L50.116,64.882L50.116,64.882z"/>
	</g>
	<g>
		<polygon style="fill:#36404D;" points="43.983,74.056 41.008,81 47.969,78.027   "/>
	</g>
	<g>
		<path style="fill:#F78F8F;" d="M69.937,45.751l1.944-1.944c0.843-0.843,1.964-1.307,3.156-1.307c1.191,0,2.312,0.464,3.155,1.307    c1.74,1.74,1.74,4.572,0,6.312l-1.944,1.944L69.937,45.751z"/>
		<g>
			<path style="fill:#C74343;" d="M75.037,43c1.059,0,2.054,0.412,2.803,1.161c1.545,1.545,1.545,4.06,0,5.605l-1.591,1.591     l-5.605-5.605l1.591-1.591C72.983,43.412,73.978,43,75.037,43 M75.037,42c-1.27,0-2.54,0.485-3.51,1.454l-2.298,2.298     l7.019,7.019l2.298-2.298c1.938-1.938,1.938-5.081,0-7.019v0C77.577,42.485,76.307,42,75.037,42L75.037,42z"/>
		</g>
	</g>
	<g>
		<path style="fill:#FFEEA3;" d="M53.674,74.655c-0.081-0.253-0.211-0.517-0.416-0.757c-0.396-0.465-0.971-0.739-1.713-0.818    c-0.215-1.695-1.572-2.372-2.574-2.548c-0.151-1.225-0.917-1.844-1.685-2.113l20.259-20.276l6.312,6.312L53.674,74.655z"/>
		<g>
			<path style="fill:#BA9B48;" d="M67.546,48.85l5.605,5.605L53.815,73.806c-0.053-0.079-0.112-0.157-0.177-0.233     c-0.301-0.353-0.817-0.758-1.665-0.931c-0.342-1.456-1.492-2.235-2.569-2.525c-0.193-0.843-0.67-1.451-1.27-1.84L67.546,48.85      M67.545,47.435l-21.293,21.31c0,0,0.01,0,0.027,0c0.255,0,2.218,0.07,2.218,2.238c0,0,2.577,0.08,2.577,2.573     c2.563,0,2.212,2.194,2.212,2.194l21.278-21.296L67.545,47.435L67.545,47.435z"/>
		</g>
	</g>
	<g>
		<polygon style="fill:#D9E7F5;" points="65.707,50 70.998,44.708 77.272,51.039 72.001,56.293   "/>
		<g>
			<path style="fill:#788B9C;" d="M70.997,45.417l5.57,5.619l-4.565,4.551L66.414,50L70.997,45.417 M71,44l-6,6l7,7l5.979-5.959     L71,44L71,44z"/>
		</g>
	</g>
</g>
</svg>