<?xml version="1.0" encoding="iso-8859-1"?>
<!-- Generator: Adobe Illustrator 19.0.0, SVG Export Plug-In . SVG Version: 6.00 Build 0)  -->
<svg version="1.1" id="Layer_1" xmlns="http://www.w3.org/2000/svg" xmlns:xlink="http://www.w3.org/1999/xlink" x="0px" y="0px"
	 viewBox="0 0 512 512" style="enable-background:new 0 0 512 512;" xml:space="preserve">
<circle style="fill:#FF8E31;" cx="256" cy="256" r="256"/>
<path style="fill:#ED7425;" d="M501.635,328.077L391.695,218.127c-1.075-1.068-2.481-1.623-3.899-1.623h-0.512l-36.772-36.731
	c-0.504-0.532-1.088-0.901-1.72-1.167c-0.246-0.105-0.512-0.125-0.773-0.195c-0.294-0.074-0.579-0.205-0.886-0.22l-0.044,0.044
	c-0.156-0.013-0.31-0.087-0.463-0.087h-0.044l-12.18-12.132l-27.763-27.763H177.352v39.898h-11.955
	c-1.413,0-2.824,0.509-3.891,1.626c-1.068,1.068-1.623,2.47-1.623,3.84v32.888h-35.663c-1.411,0-2.824,0.556-3.891,1.623
	s-1.623,2.481-1.623,3.889v109.819c0,1.405,0.556,2.819,1.623,3.886l102.382,102.39l0.732,0.765c0.041,0,0.041,0,0.041,0
	l1.027,1.024l69.302,69.297C393.219,494.484,473.943,422.625,501.635,328.077z"/>
<path style="fill:#34495E;" d="M393.288,331.843c0,1.405-0.532,2.811-1.6,3.878c-1.075,1.075-2.481,1.608-3.886,1.608H124.196
	c-1.405,0-2.806-0.532-3.881-1.608c-1.068-1.068-1.608-2.473-1.608-3.878v-76.887h274.58V331.843z"/>
<path style="fill:#5D6D7E;" d="M393.288,254.956H118.707v-32.957c0-1.405,0.54-2.808,1.608-3.876
	c1.075-1.075,2.476-1.613,3.881-1.613h263.608c1.405,0,2.811,0.538,3.886,1.613c1.068,1.068,1.6,2.47,1.6,3.876v32.957H393.288z"/>
<path style="fill:#677A8E;" d="M118.707,232.02v-10.022c0-1.405,0.54-2.808,1.608-3.876c1.075-1.075,2.476-1.613,3.881-1.613h89.029
	l38.438,38.446H141.637L118.707,232.02z M244.728,216.509h-23.749l38.444,38.446h23.757L244.728,216.509z"/>
<path style="fill:#283A4D;" d="M360.238,287.9c0-1.398-0.54-2.803-1.615-3.878c-1.068-1.068-2.473-1.608-3.886-1.608H157.038
	c-1.408,0-2.811,0.54-3.884,1.608c-1.075,1.075-1.608,2.481-1.608,3.878v49.428h208.691V287.9z"/>
<path style="fill:#5D6D7E;" d="M154.294,337.329V287.9c0-0.732,0.282-1.421,0.804-1.94c0.525-0.512,1.211-0.801,1.943-0.801h197.699
	c0.73,0,1.428,0.287,1.94,0.801c0.525,0.52,0.814,1.208,0.814,1.94v49.428H154.294z"/>
<path style="fill:#283A4D;" d="M338.271,310.042c0-0.563-0.212-1.121-0.64-1.556c-0.428-0.422-0.998-0.64-1.559-0.64H175.713
	c-0.568,0-1.124,0.218-1.551,0.64c-0.433,0.435-0.645,0.996-0.645,1.556v8.788h164.754V310.042z"/>
<g>
	<path style="fill:#34495E;" d="M352.105,368.259c0,1.405-0.535,2.811-1.61,3.886c-1.068,1.068-2.478,1.6-3.884,1.6H165.386
		c-1.403,0-2.816-0.532-3.889-1.6c-1.07-1.075-1.608-2.481-1.608-3.886V318.83h192.215V368.259z"/>
	<path style="fill:#34495E;" d="M352.105,233.068H159.89v-49.428c0-1.405,0.538-2.813,1.608-3.889
		c1.07-1.07,2.483-1.608,3.889-1.608h181.228c1.405,0,2.816,0.538,3.884,1.608c1.075,1.075,1.61,2.483,1.61,3.889v49.428H352.105z"
		/>
</g>
<polygon style="fill:#FFFFFF;" points="177.352,233.068 334.428,233.068 334.428,166.019 306.657,138.255 177.352,138.255 "/>
<polygon style="fill:#B8D1E6;" points="334.428,166.019 306.657,138.255 306.657,166.019 "/>
<rect x="177.357" y="312.166" style="fill:#FFFFFF;" width="157.082" height="54.915"/>
<g>
	<rect x="189.978" y="319.744" style="fill:#B8D1E6;" width="131.814" height="2.191"/>
	<rect x="189.978" y="326.81" style="fill:#B8D1E6;" width="131.814" height="2.196"/>
	<rect x="189.978" y="333.85" style="fill:#B8D1E6;" width="131.814" height="2.191"/>
	<rect x="189.978" y="340.89" style="fill:#B8D1E6;" width="131.814" height="2.196"/>
	<rect x="189.978" y="347.955" style="fill:#B8D1E6;" width="65.912" height="2.189"/>
</g>
<g>
	<path style="fill:#5D6D7E;" d="M381.706,288.236c0,0.604-0.492,1.098-1.096,1.098h-7.693c-0.609,0-1.103-0.492-1.103-1.098v-4.726
		c0-0.604,0.492-1.096,1.103-1.096h7.693c0.602,0,1.096,0.489,1.096,1.096V288.236z"/>
	<path style="fill:#5D6D7E;" d="M381.706,303.882c0,0.612-0.492,1.103-1.096,1.103h-7.693c-0.609,0-1.103-0.489-1.103-1.103v-4.726
		c0-0.596,0.492-1.096,1.103-1.096h7.693c0.602,0,1.096,0.497,1.096,1.096V303.882z"/>
</g>
<g>
</g>
<g>
</g>
<g>
</g>
<g>
</g>
<g>
</g>
<g>
</g>
<g>
</g>
<g>
</g>
<g>
</g>
<g>
</g>
<g>
</g>
<g>
</g>
<g>
</g>
<g>
</g>
<g>
</g>
</svg>
